<svg width="512" height="135" viewBox="0 0 512 135" fill="none" xmlns="http://www.w3.org/2000/svg">
<path d="M69.1719 55.6319C77.1692 60.478 81.1679 66.9066 81.1679 74.9176C81.1679 82.8297 76.8057 89.9011 68.0813 96.1319C59.4608 102.264 49.8017 105.33 39.1039 105.33C28.4062 105.33 19.2144 102.758 11.5286 97.6154C3.84288 92.3736 0 84.9066 0 75.2143V73.5824H19.7857V76.8462C19.7857 83.4725 21.7071 89.011 25.55 93.4615C29.4967 97.8132 34.2744 99.989 39.8829 99.989C45.5953 99.989 50.1652 98.3077 53.5926 94.9451C57.1239 91.4835 58.8896 86.7363 58.8896 80.7033C58.8896 76.1538 55.2544 71.7527 47.9841 67.5L16.8256 49.4011C8.20507 44.456 3.89481 37.533 3.89481 28.6319C3.89481 21.4121 7.42611 14.8352 14.4887 8.9011C21.5513 2.96703 30.2757 0 40.6619 0C46.1665 0 50.9961 0.79121 55.1506 2.37363C59.4089 3.95605 62.5767 5.93407 64.6539 8.30769C68.4968 12.7582 70.4182 16.467 70.4182 19.4341V20.3242H65.1213C65.1213 16.9615 63.1479 13.5989 59.2012 10.2363C55.3583 6.87363 50.6326 5.19231 45.024 5.19231C39.5194 5.19231 34.7937 6.82418 30.8469 10.0879C26.9002 13.3517 24.9268 17.5549 24.9268 22.6978C24.9268 25.7637 26.0174 28.3846 28.1985 30.5604C30.4834 32.7363 33.5473 34.9121 37.3902 37.0879L69.1719 55.6319Z" fill="#F7FF00"/>
<path d="M115.958 1.48352V103.846H91.1873V1.48352H115.958Z" fill="#F7FF00"/>
<path d="M216.262 92.1264C216.262 104.39 214.289 113.44 210.342 119.275C205.772 126.099 199.644 130.648 191.958 132.923C187.285 134.308 181.884 135 175.756 135C161.111 135 149.012 131.143 139.456 123.429L142.728 119.126C151.66 125.753 160.904 129.066 170.459 129.066C185.415 129.066 192.893 120.066 192.893 102.066V93.7582C191.335 96.8242 188.842 99.544 185.415 101.918C182.091 104.192 177.937 105.33 172.952 105.33C160.384 105.33 150.31 101.72 142.728 94.5C135.25 87.1813 131.511 77.8352 131.511 66.4615V39.0165C131.511 27.9396 135.406 18.6923 143.195 11.2747C150.985 3.75824 161.163 0 173.731 0C183.597 0 192.478 2.67033 200.371 8.01099C208.265 13.2527 212.211 20.4725 212.211 29.6703V31.7473H191.335L191.179 28.1868C190.868 21.2637 189.258 15.7253 186.35 11.5714C183.442 7.31868 179.183 5.19231 173.575 5.19231C167.966 5.19231 163.656 7.31868 160.644 11.5714C157.632 15.8242 156.126 21.3626 156.126 28.1868V76.9945C156.126 83.9176 157.632 89.5055 160.644 93.7582C163.656 98.011 168.07 100.137 173.886 100.137C179.703 100.137 184.065 98.011 186.973 93.7582C189.985 89.4066 191.491 83.8187 191.491 76.9945V73.8791H216.262V92.1264Z" fill="#031D92"/>
<path d="M314.613 103.846H289.842V87.5275C287.869 92.967 284.649 97.3187 280.183 100.582C275.821 103.747 270.939 105.33 265.539 105.33C254.322 105.33 245.389 102.016 238.742 95.3901C232.095 88.6648 228.772 79.2692 228.772 67.2033V1.48352H253.387V74.6209C253.387 91.6319 258.632 100.137 269.122 100.137C274.938 100.137 279.82 97.2198 283.766 91.3846C287.713 85.5495 289.686 78.3297 289.686 69.7253V1.48352H314.613V103.846Z" fill="#031D92"/>
<path d="M413.957 103.846H389.03V27.7418C389.03 18.7418 387.991 12.7582 385.914 9.79121C383.941 6.72528 381.136 5.19231 377.501 5.19231C371.893 5.19231 366.959 8.15934 362.701 14.0934C358.443 20.0275 356.313 27 356.313 35.011V103.846H331.698V1.48352H356.313V18.544C358.391 12.7088 361.558 8.15934 365.817 4.8956C370.179 1.63187 375.268 0 381.084 0C398.325 0 408.764 7.36813 412.399 22.1044C414.476 15.478 417.748 10.1374 422.214 6.08242C426.784 2.02747 432.288 0 438.728 0C460.642 0 471.6 11.7692 471.6 35.3077V103.846H446.673V27.7418C446.673 18.7418 445.634 12.7582 443.557 9.79121C441.584 6.72528 438.78 5.19231 435.144 5.19231C429.536 5.19231 424.602 8.15934 420.344 14.0934C416.086 20.0275 413.957 27 413.957 35.011V103.846Z" fill="#031D92"/>
<path d="M512 1.48352V103.846H487.229V1.48352H512Z" fill="#031D92"/>
</svg>
